<svg width="106" height="26" viewBox="0 0 106 26" fill="none" xmlns="http://www.w3.org/2000/svg">
<path d="M12.0372 2.1084C10.007 2.1084 8.36719 3.63915 8.36719 5.53435C8.36719 7.41499 10.007 8.94571 12.0215 8.96031C11.5218 8.94571 11.1314 8.5667 11.1314 8.10016C11.1314 7.63366 11.5374 7.24005 12.0528 7.24005C14.2391 7.24005 19.096 7.24005 21.2355 7.24005C22.7503 7.24005 23.9841 6.08834 23.9841 4.67424C23.9841 3.2601 22.7503 2.1084 21.2355 2.1084L12.0372 2.1084Z" fill="#F9F9F9"/>
<path opacity="0.9" d="M7.57622 8.95996C5.54602 8.95996 3.90625 10.4907 3.90625 12.3859C3.90625 14.2666 5.54602 15.7973 7.56059 15.8119C7.06086 15.7973 6.67044 15.4183 6.67044 14.9517C6.67044 14.4852 7.07649 14.0916 7.59185 14.0916C9.77819 14.0916 14.6351 14.0916 16.7746 14.0916C18.2894 14.0916 19.5231 12.9399 19.5231 11.5258C19.5231 10.1117 18.2894 8.95996 16.7746 8.95996L7.57622 8.95996Z" fill="#F9F9F9"/>
<path opacity="0.8" d="M4.4907 15.812C2.31549 15.812 0.558594 17.4605 0.558594 19.5015C0.558594 21.5268 2.31549 23.1753 4.47396 23.191C3.93853 23.1753 3.52022 22.7671 3.52022 22.2647C3.52022 21.7623 3.95527 21.3384 4.50745 21.3384C6.84996 21.3384 12.0537 21.3384 14.3461 21.3384C15.9691 21.3384 17.291 20.0981 17.291 18.5752C17.291 17.0523 15.9691 15.812 14.3461 15.812L4.4907 15.812Z" fill="#F9F9F9"/>
<path d="M29.5508 17.8724V6.80389H37.0803V8.70134H31.7595V11.342H36.6118V13.2394H31.7595V15.9749H37.1807V17.8724H29.5508Z" fill="#F9F9F9"/>
<path d="M38.046 21.0348V10.0296H40.1208V10.9783H40.422C40.6116 10.6726 40.9072 10.4038 41.3088 10.1719C41.7104 9.92941 42.2849 9.80819 43.0322 9.80819C43.7015 9.80819 44.3206 9.96631 44.8895 10.2825C45.4584 10.5883 45.9158 11.0415 46.2616 11.6424C46.6074 12.2432 46.7803 12.9706 46.7803 13.8245V14.0775C46.7803 14.9313 46.6074 15.6587 46.2616 16.2595C45.9158 16.8604 45.4584 17.3189 44.8895 17.6352C44.3206 17.9409 43.7015 18.0937 43.0322 18.0937C42.5303 18.0937 42.1064 18.0357 41.7606 17.9198C41.4259 17.8144 41.1526 17.6773 40.9407 17.5087C40.7399 17.3295 40.5782 17.1503 40.4555 16.9711H40.1543V21.0348H38.046ZM42.3964 16.3544C43.0545 16.3544 43.5956 16.1594 44.0194 15.7693C44.4545 15.3688 44.672 14.789 44.672 14.03V13.8719C44.672 13.1129 44.4545 12.5384 44.0194 12.1484C43.5844 11.7478 43.0434 11.5475 42.3964 11.5475C41.7494 11.5475 41.2084 11.7478 40.7734 12.1484C40.3383 12.5384 40.1208 13.1129 40.1208 13.8719V14.03C40.1208 14.789 40.3383 15.3688 40.7734 15.7693C41.2084 16.1594 41.7494 16.3544 42.3964 16.3544Z" fill="#F9F9F9"/>
<path d="M47.8795 17.8724V10.0296H49.9878V17.8724H47.8795ZM48.9337 9.11245C48.5544 9.11245 48.2309 8.9965 47.9632 8.76459C47.7066 8.53268 47.5783 8.22698 47.5783 7.84749C47.5783 7.468 47.7066 7.1623 47.9632 6.93039C48.2309 6.69847 48.5544 6.58252 48.9337 6.58252C49.3241 6.58252 49.6476 6.69847 49.9041 6.93039C50.1607 7.1623 50.289 7.468 50.289 7.84749C50.289 8.22698 50.1607 8.53268 49.9041 8.76459C49.6476 8.9965 49.3241 9.11245 48.9337 9.11245Z" fill="#F9F9F9"/>
<path d="M55.3861 18.0937C54.5829 18.0937 53.8523 17.9356 53.1941 17.6194C52.5472 17.3031 52.034 16.8446 51.6548 16.2437C51.2755 15.6428 51.0859 14.9155 51.0859 14.0616V13.8403C51.0859 12.9864 51.2755 12.2591 51.6548 11.6582C52.034 11.0573 52.5472 10.5988 53.1941 10.2825C53.8523 9.96631 54.5829 9.80819 55.3861 9.80819C56.1781 9.80819 56.8585 9.93995 57.4274 10.2035C57.9963 10.467 58.4537 10.8307 58.7995 11.2945C59.1564 11.7478 59.3907 12.2643 59.5023 12.8441L57.4609 13.2552C57.4163 12.939 57.3159 12.6544 57.1597 12.4014C57.0036 12.1484 56.7805 11.9481 56.4904 11.8005C56.2116 11.6529 55.8602 11.5791 55.4363 11.5791C55.0124 11.5791 54.6276 11.6687 54.2818 11.8479C53.9471 12.0166 53.6794 12.2749 53.4786 12.6227C53.289 12.9601 53.1941 13.3764 53.1941 13.8719V14.03C53.1941 14.5255 53.289 14.9471 53.4786 15.295C53.6794 15.6323 53.9471 15.8906 54.2818 16.0698C54.6276 16.2384 55.0124 16.3228 55.4363 16.3228C56.0721 16.3228 56.5518 16.1699 56.8753 15.8642C57.2099 15.548 57.4219 15.1369 57.5111 14.6309L59.5525 15.0894C59.4074 15.6481 59.1564 16.1594 58.7995 16.6232C58.4537 17.0765 57.9963 17.4349 57.4274 17.6984C56.8585 17.962 56.1781 18.0937 55.3861 18.0937Z" fill="#F9F9F9"/>
<path d="M63.6174 17.9989C62.9704 17.9989 62.4015 17.8618 61.9107 17.5877C61.431 17.3031 61.0573 16.9131 60.7896 16.4176C60.5219 15.9222 60.388 15.353 60.388 14.7099V10.0296H62.4963V14.5518C62.4963 15.1421 62.6469 15.5849 62.9481 15.88C63.2604 16.1752 63.701 16.3228 64.2699 16.3228C64.9169 16.3228 65.4189 16.1225 65.7758 15.7219C66.1328 15.3108 66.3113 14.7416 66.3113 14.0142V10.0296H68.4196V17.8724H66.3447V16.8446H66.0436C65.9097 17.1081 65.6587 17.3664 65.2906 17.6194C64.9225 17.8724 64.3647 17.9989 63.6174 17.9989Z" fill="#F9F9F9"/>
<path d="M69.929 17.8724V10.0296H72.0038V10.915H72.305C72.4277 10.5988 72.6285 10.3669 72.9074 10.2193C73.1974 10.0717 73.532 9.99793 73.9113 9.99793H74.9152V11.7689H73.8778C73.3424 11.7689 72.9018 11.9059 72.556 12.18C72.2102 12.4435 72.0373 12.8547 72.0373 13.4133V17.8724H69.929Z" fill="#F9F9F9"/>
<path d="M75.7265 17.8724V10.0296H77.8348V17.8724H75.7265ZM76.7806 9.11245C76.4014 9.11245 76.0779 8.9965 75.8102 8.76459C75.5536 8.53268 75.4253 8.22698 75.4253 7.84749C75.4253 7.468 75.5536 7.1623 75.8102 6.93039C76.0779 6.69847 76.4014 6.58252 76.7806 6.58252C77.1711 6.58252 77.4946 6.69847 77.7511 6.93039C78.0077 7.1623 78.136 7.468 78.136 7.84749C78.136 8.22698 78.0077 8.53268 77.7511 8.76459C77.4946 8.9965 77.1711 9.11245 76.7806 9.11245Z" fill="#F9F9F9"/>
<path d="M83.2833 18.0937C82.4578 18.0937 81.716 17.9356 81.0579 17.6194C80.3997 17.3031 79.881 16.8446 79.5018 16.2437C79.1225 15.6428 78.9328 14.9208 78.9328 14.0775V13.8245C78.9328 12.9811 79.1225 12.2591 79.5018 11.6582C79.881 11.0573 80.3997 10.5988 81.0579 10.2825C81.716 9.96631 82.4578 9.80819 83.2833 9.80819C84.1087 9.80819 84.8505 9.96631 85.5087 10.2825C86.1668 10.5988 86.6855 11.0573 87.0648 11.6582C87.444 12.2591 87.6337 12.9811 87.6337 13.8245V14.0775C87.6337 14.9208 87.444 15.6428 87.0648 16.2437C86.6855 16.8446 86.1668 17.3031 85.5087 17.6194C84.8505 17.9356 84.1087 18.0937 83.2833 18.0937ZM83.2833 16.3228C83.9302 16.3228 84.4657 16.1278 84.8896 15.7377C85.3135 15.3371 85.5254 14.7679 85.5254 14.03V13.8719C85.5254 13.134 85.3135 12.57 84.8896 12.18C84.4768 11.7794 83.9414 11.5791 83.2833 11.5791C82.6363 11.5791 82.1008 11.7794 81.677 12.18C81.2531 12.57 81.0411 13.134 81.0411 13.8719V14.03C81.0411 14.7679 81.2531 15.3371 81.677 15.7377C82.1008 16.1278 82.6363 16.3228 83.2833 16.3228Z" fill="#F9F9F9"/>
<path d="M91.9055 17.9989C91.2585 17.9989 90.6896 17.8618 90.1988 17.5877C89.7192 17.3031 89.3455 16.9131 89.0778 16.4176C88.81 15.9222 88.6762 15.353 88.6762 14.7099V10.0296H90.7845V14.5518C90.7845 15.1421 90.9351 15.5849 91.2362 15.88C91.5486 16.1752 91.9892 16.3228 92.5581 16.3228C93.2051 16.3228 93.7071 16.1225 94.064 15.7219C94.421 15.3108 94.5994 14.7416 94.5994 14.0142V10.0296H96.7077V17.8724H94.6329V16.8446H94.3317C94.1979 17.1081 93.9469 17.3664 93.5788 17.6194C93.2107 17.8724 92.6529 17.9989 91.9055 17.9989Z" fill="#F9F9F9"/>
<path d="M101.664 18.0937C100.582 18.0937 99.6952 17.8724 99.0036 17.4296C98.312 16.9869 97.8937 16.3544 97.7487 15.5322L99.6896 15.0578C99.7677 15.4268 99.896 15.7166 100.074 15.9275C100.264 16.1383 100.493 16.2911 100.76 16.386C101.039 16.4703 101.341 16.5125 101.664 16.5125C102.155 16.5125 102.517 16.4335 102.752 16.2753C102.986 16.1067 103.103 15.9011 103.103 15.6587C103.103 15.4162 102.991 15.2317 102.768 15.1052C102.545 14.9682 102.188 14.8575 101.698 14.7732L101.229 14.6941C100.649 14.5887 100.119 14.4464 99.6394 14.2672C99.1598 14.0775 98.7749 13.8192 98.4849 13.4924C98.1949 13.1656 98.0498 12.744 98.0498 12.2274C98.0498 11.4474 98.351 10.8518 98.9534 10.4407C99.5558 10.019 100.348 9.80819 101.329 9.80819C102.255 9.80819 103.025 10.0032 103.638 10.3932C104.252 10.7833 104.654 11.2945 104.843 11.927L102.886 12.4962C102.796 12.0957 102.612 11.8111 102.333 11.6424C102.066 11.4737 101.731 11.3894 101.329 11.3894C100.928 11.3894 100.621 11.4579 100.409 11.595C100.197 11.7214 100.091 11.9007 100.091 12.1326C100.091 12.3856 100.203 12.5753 100.426 12.7018C100.649 12.8178 100.95 12.9074 101.329 12.9706L101.798 13.0497C102.423 13.1551 102.986 13.2974 103.488 13.4766C104.001 13.6453 104.403 13.893 104.693 14.2198C104.994 14.536 105.144 14.9682 105.144 15.5164C105.144 16.3386 104.826 16.9763 104.191 17.4296C103.566 17.8724 102.724 18.0937 101.664 18.0937Z" fill="#F9F9F9"/>
</svg>
