<svg width="101" height="27" viewBox="0 0 101 27" fill="none" xmlns="http://www.w3.org/2000/svg">
<path opacity="0.8" fill-rule="evenodd" clip-rule="evenodd" d="M11.782 20.4595C15.4693 20.4595 18.4585 17.328 18.4585 13.4651C18.4585 9.60223 15.4693 6.47073 11.782 6.47073C8.0947 6.47073 5.10554 9.60223 5.10554 13.4651C5.10554 17.328 8.0947 20.4595 11.782 20.4595ZM11.782 25.8082C18.289 25.8082 23.564 20.282 23.564 13.4651C23.564 6.64825 18.289 1.12207 11.782 1.12207C5.27499 1.12207 0 6.64825 0 13.4651C0 20.282 5.27499 25.8082 11.782 25.8082Z" fill="#F9F9F9"/>
<path opacity="0.6" d="M11.917 13.7354C13.144 12.45 15.1333 12.45 16.3603 13.7354L22.4698 20.1358C23.6968 21.4212 23.6968 23.5053 22.4698 24.7907C21.2428 26.0761 19.2535 26.0761 18.0265 24.7907L11.917 18.3903C10.6901 17.1048 10.6901 15.0208 11.917 13.7354Z" fill="#F9F9F9"/>
<path d="M13.6328 20.1873L17.513 24.2523C19.3741 23.1649 20.9247 21.5642 21.9903 19.633L18.1418 15.6013C17.4659 17.8115 15.7691 19.5431 13.6328 20.1873Z" fill="#F9F9F9"/>
<path d="M42.5874 20.2544C42.2475 20.6942 41.8326 21.0293 41.3428 21.2598C40.8629 21.4902 40.3331 21.6054 39.7533 21.6054C38.9735 21.6054 38.2688 21.4273 37.639 21.0712C37.0092 20.7256 36.2894 20.1077 35.4796 19.2175C34.5299 19.0919 33.6802 18.7724 32.9304 18.2593C32.1907 17.7461 31.6108 17.0863 31.191 16.2799C30.7811 15.463 30.5762 14.5623 30.5762 13.5779C30.5762 12.4992 30.8211 11.5304 31.3109 10.6716C31.8108 9.8024 32.4956 9.12166 33.3653 8.62943C34.245 8.13721 35.2297 7.89109 36.3194 7.89109C37.409 7.89109 38.3887 8.13721 39.2584 8.62943C40.1282 9.12166 40.813 9.8024 41.3128 10.6716C41.8126 11.5304 42.0626 12.4992 42.0626 13.5779C42.0626 14.8556 41.7177 15.9762 41.0279 16.9397C40.3481 17.9032 39.4434 18.5735 38.3137 18.9505C38.5637 19.2228 38.8036 19.4165 39.0335 19.5317C39.2734 19.6574 39.5284 19.7202 39.7983 19.7202C40.4481 19.7202 41.0179 19.4479 41.5077 18.9033L42.5874 20.2544ZM33.0354 13.5779C33.0354 14.2586 33.1754 14.866 33.4553 15.4002C33.7452 15.9343 34.1401 16.3532 34.6399 16.6569C35.1397 16.9502 35.6996 17.0968 36.3194 17.0968C36.9392 17.0968 37.499 16.9502 37.9988 16.6569C38.4987 16.3532 38.8886 15.9343 39.1685 15.4002C39.4584 14.866 39.6033 14.2586 39.6033 13.5779C39.6033 12.8971 39.4584 12.2897 39.1685 11.7556C38.8886 11.2215 38.4987 10.8078 37.9988 10.5146C37.499 10.2108 36.9392 10.059 36.3194 10.059C35.6996 10.059 35.1397 10.2108 34.6399 10.5146C34.1401 10.8078 33.7452 11.2215 33.4553 11.7556C33.1754 12.2897 33.0354 12.8971 33.0354 13.5779Z" fill="#F9F9F9"/>
<path d="M51.8507 10.6245V19.0762H49.6314V18.0708C49.3215 18.4373 48.9517 18.7201 48.5218 18.9191C48.0919 19.1076 47.6271 19.2018 47.1272 19.2018C46.0676 19.2018 45.2278 18.8824 44.608 18.2436C43.9882 17.6047 43.6783 16.6569 43.6783 15.4002V10.6245H46.0176V15.0388C46.0176 16.4003 46.5624 17.0811 47.6521 17.0811C48.2119 17.0811 48.6617 16.8926 49.0016 16.5155C49.3415 16.128 49.5115 15.5573 49.5115 14.8032V10.6245H51.8507Z" fill="#F9F9F9"/>
<path d="M57.8567 19.2018C57.007 19.2018 56.2422 19.0186 55.5624 18.652C54.8926 18.275 54.3678 17.7566 53.9879 17.0968C53.608 16.437 53.4181 15.6882 53.4181 14.8503C53.4181 14.0125 53.608 13.2637 53.9879 12.6039C54.3678 11.9441 54.8926 11.4309 55.5624 11.0644C56.2422 10.6874 57.007 10.4988 57.8567 10.4988C58.7064 10.4988 59.4662 10.6874 60.136 11.0644C60.8058 11.4309 61.3306 11.9441 61.7105 12.6039C62.0904 13.2637 62.2803 14.0125 62.2803 14.8503C62.2803 15.6882 62.0904 16.437 61.7105 17.0968C61.3306 17.7566 60.8058 18.275 60.136 18.652C59.4662 19.0186 58.7064 19.2018 57.8567 19.2018ZM57.8567 17.191C58.4565 17.191 58.9464 16.9816 59.3263 16.5627C59.7161 16.1333 59.9111 15.5625 59.9111 14.8503C59.9111 14.1382 59.7161 13.5726 59.3263 13.1537C58.9464 12.7243 58.4565 12.5096 57.8567 12.5096C57.2569 12.5096 56.7621 12.7243 56.3722 13.1537C55.9823 13.5726 55.7874 14.1382 55.7874 14.8503C55.7874 15.5625 55.9823 16.1333 56.3722 16.5627C56.7621 16.9816 57.2569 17.191 57.8567 17.191Z" fill="#F9F9F9"/>
<path d="M69.0473 18.6677C68.8174 18.8457 68.5325 18.9819 68.1926 19.0762C67.8627 19.1599 67.5128 19.2018 67.1429 19.2018C66.1832 19.2018 65.4384 18.9452 64.9086 18.4321C64.3888 17.9189 64.1288 17.1648 64.1288 16.1699V12.6982H62.8842V10.813H64.1288V8.75511H66.4681V10.813H68.4775V12.6982H66.4681V16.1385C66.4681 16.4946 66.5531 16.7721 66.723 16.9711C66.903 17.1596 67.1529 17.2539 67.4728 17.2539C67.8427 17.2539 68.1576 17.1491 68.4175 16.9397L69.0473 18.6677Z" fill="#F9F9F9"/>
<path d="M70.3604 10.6245H72.6997V19.0762H70.3604V10.6245ZM71.5301 9.44632C71.1002 9.44632 70.7503 9.31541 70.4804 9.05359C70.2105 8.79176 70.0755 8.4671 70.0755 8.0796C70.0755 7.69211 70.2105 7.36745 70.4804 7.10563C70.7503 6.8438 71.1002 6.71289 71.5301 6.71289C71.9599 6.71289 72.3098 6.83857 72.5797 7.08992C72.8497 7.34127 72.9846 7.65545 72.9846 8.03248C72.9846 8.44092 72.8497 8.78129 72.5797 9.05359C72.3098 9.31541 71.9599 9.44632 71.5301 9.44632Z" fill="#F9F9F9"/>
<path d="M82.7733 14.8818C82.7733 14.9132 82.7583 15.1331 82.7283 15.5415H76.6252C76.7352 16.0652 76.9951 16.4789 77.4049 16.7826C77.8148 17.0863 78.3247 17.2382 78.9345 17.2382C79.3543 17.2382 79.7242 17.1753 80.0441 17.0496C80.374 16.9135 80.6789 16.704 80.9588 16.4213L82.2034 17.8351C81.4437 18.7463 80.334 19.2018 78.8745 19.2018C77.9648 19.2018 77.16 19.0186 76.4602 18.652C75.7605 18.275 75.2206 17.7566 74.8408 17.0968C74.4609 16.437 74.2709 15.6882 74.2709 14.8503C74.2709 14.023 74.4559 13.2794 74.8258 12.6196C75.2056 11.9493 75.7205 11.4309 76.3703 11.0644C77.0301 10.6874 77.7648 10.4988 78.5746 10.4988C79.3643 10.4988 80.0791 10.6769 80.7189 11.033C81.3587 11.389 81.8586 11.9022 82.2184 12.5725C82.5883 13.2323 82.7733 14.002 82.7733 14.8818ZM78.5896 12.3525C78.0597 12.3525 77.6149 12.5096 77.255 12.8238C76.8951 13.138 76.6752 13.5674 76.5952 14.112H80.569C80.489 13.5779 80.2691 13.1537 79.9092 12.8395C79.5493 12.5149 79.1094 12.3525 78.5896 12.3525Z" fill="#F9F9F9"/>
<path d="M89.2341 10.4988C90.2338 10.4988 91.0386 10.813 91.6484 11.4414C92.2682 12.0698 92.5781 13.0019 92.5781 14.2377V19.0762H90.2388V14.6147C90.2388 13.9444 90.0989 13.447 89.8189 13.1223C89.539 12.7872 89.1342 12.6196 88.6043 12.6196C88.0145 12.6196 87.5447 12.8134 87.1948 13.2009C86.8449 13.5779 86.6699 14.1434 86.6699 14.8975V19.0762H84.3307V10.6245H86.565V11.6142C86.8749 11.2581 87.2597 10.9858 87.7196 10.7973C88.1795 10.5983 88.6843 10.4988 89.2341 10.4988Z" fill="#F9F9F9"/>
<path d="M99.9019 18.6677C99.6719 18.8457 99.387 18.9819 99.0471 19.0762C98.7172 19.1599 98.3674 19.2018 97.9975 19.2018C97.0378 19.2018 96.293 18.9452 95.7632 18.4321C95.2433 17.9189 94.9834 17.1648 94.9834 16.1699V12.6982H93.7388V10.813H94.9834V8.75511H97.3227V10.813H99.3321V12.6982H97.3227V16.1385C97.3227 16.4946 97.4077 16.7721 97.5776 16.9711C97.7575 17.1596 98.0075 17.2539 98.3274 17.2539C98.6973 17.2539 99.0122 17.1491 99.2721 16.9397L99.9019 18.6677Z" fill="#F9F9F9"/>
</svg>
