<svg width="106" height="26" viewBox="0 0 106 26" fill="none" xmlns="http://www.w3.org/2000/svg">
<path d="M18.4095 12.6497C16.4782 14.7429 13.6714 16.0602 10.5475 16.0602C7.42364 16.0602 4.61692 14.7429 2.68555 12.6497C4.61692 10.5565 7.42364 9.23926 10.5475 9.23926C13.6714 9.23926 16.4782 10.5565 18.4095 12.6497Z" fill="#F9F9F9"/>
<path opacity="0.6" fill-rule="evenodd" clip-rule="evenodd" d="M0 19.4706C0 13.82 4.7224 9.23926 10.5478 9.23926C7.42388 9.23926 4.61719 10.5565 2.68582 12.6497C4.61719 14.7429 7.4239 16.0602 10.5478 16.0602C13.6717 16.0602 16.4784 14.7429 18.4098 12.6497C20.08 14.4598 21.0956 16.8502 21.0956 19.4706V23.3358C21.0956 23.8381 20.6758 24.2452 20.158 24.2452H0.937581C0.419769 24.2452 0 23.8381 0 23.3358L0 19.4706ZM18.4098 12.6497C18.4098 12.6497 18.4098 12.6497 18.4098 12.6497V12.6497Z" fill="#F9F9F9"/>
<path opacity="0.8" fill-rule="evenodd" clip-rule="evenodd" d="M6.59143 15.3161C5.08535 14.7246 3.75217 13.8054 2.68582 12.6497C4.61719 10.5566 7.4239 9.23928 10.5478 9.23928C13.6717 9.23928 16.4784 10.5566 18.4098 12.6497C18.4098 12.6497 18.4098 12.6497 18.4098 12.6497C20.08 10.8396 21.0956 8.44926 21.0956 5.82883V1.96365C21.0956 1.46138 20.6758 1.0542 20.158 1.0542L0.937581 1.0542C0.41977 1.0542 3.93624e-07 1.46138 3.48355e-07 1.96365L0 5.82883C-7.00645e-07 10.1223 2.72639 13.7981 6.59143 15.3161Z" fill="#F9F9F9"/>
<path d="M37.5689 7.61935V17.9204H35.4389V13.5373H30.8898V17.9204H28.7598V7.61935H30.8898V11.8549H35.4389V7.61935H37.5689Z" fill="#F9F9F9"/>
<path d="M43.4081 18.0532C42.5967 18.0532 41.8664 17.881 41.2172 17.5367C40.5681 17.1825 40.0559 16.6856 39.6806 16.0461C39.3155 15.4066 39.1329 14.6687 39.1329 13.8324C39.1329 12.9962 39.3205 12.2583 39.6958 11.6188C40.0812 10.9792 40.6036 10.4873 41.2629 10.143C41.9222 9.78876 42.6575 9.61167 43.469 9.61167C44.2804 9.61167 45.0158 9.78876 45.6751 10.143C46.3344 10.4873 46.8516 10.9792 47.2269 11.6188C47.6124 12.2583 47.8051 12.9962 47.8051 13.8324C47.8051 14.6687 47.6073 15.4066 47.2117 16.0461C46.8263 16.6856 46.2989 17.1825 45.6294 17.5367C44.9701 17.881 44.2297 18.0532 43.4081 18.0532ZM43.4081 16.2527C43.7936 16.2527 44.1536 16.1642 44.4883 15.9871C44.8332 15.8002 45.1071 15.5247 45.3099 15.1607C45.5128 14.7966 45.6142 14.3539 45.6142 13.8324C45.6142 13.0552 45.4012 12.46 44.9752 12.0467C44.5593 11.6237 44.0471 11.4121 43.4385 11.4121C42.83 11.4121 42.3178 11.6237 41.9019 12.0467C41.4962 12.46 41.2933 13.0552 41.2933 13.8324C41.2933 14.6097 41.4911 15.2099 41.8867 15.6329C42.2924 16.0461 42.7995 16.2527 43.4081 16.2527Z" fill="#F9F9F9"/>
<path d="M57.3246 9.74449V17.9204H55.1794V16.8873C54.9056 17.2415 54.5455 17.5219 54.0992 17.7285C53.663 17.9253 53.1863 18.0237 52.669 18.0237C52.0098 18.0237 51.4265 17.8909 50.9194 17.6252C50.4122 17.3498 50.0116 16.9513 49.7175 16.4298C49.4335 15.8986 49.2914 15.2689 49.2914 14.5408V9.74449H51.4215V14.2457C51.4215 14.895 51.5888 15.3968 51.9235 15.751C52.2583 16.0953 52.7147 16.2675 53.2928 16.2675C53.8811 16.2675 54.3426 16.0953 54.6773 15.751C55.0121 15.3968 55.1794 14.895 55.1794 14.2457V9.74449H57.3246Z" fill="#F9F9F9"/>
<path d="M61.5563 11.0137C61.8301 10.5808 62.1851 10.2413 62.6213 9.99538C63.0676 9.74941 63.5747 9.62643 64.1427 9.62643V11.7958H63.5798C62.9103 11.7958 62.4032 11.9483 62.0583 12.2533C61.7236 12.5583 61.5563 13.0896 61.5563 13.8472V17.9204H59.4262V9.74449H61.5563V11.0137Z" fill="#F9F9F9"/>
<path d="M68.8789 9.61167C69.5078 9.61167 70.0605 9.73465 70.5373 9.98062C71.014 10.2167 71.3893 10.5267 71.6631 10.9104V9.74449H73.8083V17.9794C73.8083 18.737 73.6511 19.411 73.3367 20.0013C73.0223 20.6014 72.5506 21.0737 71.9218 21.418C71.2929 21.7722 70.5322 21.9493 69.6396 21.9493C68.4427 21.9493 67.4589 21.6788 66.688 21.1376C65.9273 20.5965 65.4962 19.8586 65.3948 18.9239H67.5096C67.6212 19.2978 67.8595 19.593 68.2247 19.8094C68.6 20.0357 69.0513 20.1489 69.5788 20.1489C70.1975 20.1489 70.6995 19.9668 71.085 19.6028C71.4704 19.2486 71.6631 18.7075 71.6631 17.9794V16.7102C71.3893 17.094 71.0089 17.4137 70.522 17.6695C70.0453 17.9253 69.4976 18.0532 68.8789 18.0532C68.1689 18.0532 67.5197 17.8761 66.9314 17.5219C66.3432 17.1677 65.8766 16.6709 65.5317 16.0314C65.197 15.382 65.0297 14.6392 65.0297 13.8029C65.0297 12.9765 65.197 12.2435 65.5317 11.604C65.8766 10.9645 66.3381 10.4725 66.9162 10.1282C67.5045 9.78385 68.1587 9.61167 68.8789 9.61167ZM71.6631 13.8324C71.6631 13.3307 71.5617 12.9027 71.3588 12.5485C71.156 12.1845 70.8821 11.909 70.5373 11.7221C70.1924 11.5253 69.8222 11.4269 69.4266 11.4269C69.031 11.4269 68.6659 11.5204 68.3312 11.7073C67.9965 11.8942 67.7226 12.1697 67.5096 12.5337C67.3067 12.8879 67.2053 13.311 67.2053 13.8029C67.2053 14.2949 67.3067 14.7278 67.5096 15.1016C67.7226 15.4657 67.9965 15.7461 68.3312 15.9428C68.676 16.1396 69.0412 16.238 69.4266 16.238C69.8222 16.238 70.1924 16.1445 70.5373 15.9576C70.8821 15.7608 71.156 15.4853 71.3588 15.1311C71.5617 14.7671 71.6631 14.3342 71.6631 13.8324Z" fill="#F9F9F9"/>
<path d="M78.0187 6.99951V17.9204H75.8887V6.99951H78.0187Z" fill="#F9F9F9"/>
<path d="M79.5754 13.8029C79.5754 12.9765 79.7428 12.2435 80.0775 11.604C80.4224 10.9645 80.8839 10.4725 81.462 10.1282C82.0503 9.78385 82.7045 9.61167 83.4247 9.61167C84.0535 9.61167 84.6012 9.73465 85.0678 9.98062C85.5445 10.2266 85.9249 10.5365 86.2089 10.9104V9.74449H88.3541V17.9204H86.2089V16.725C85.935 17.1087 85.5547 17.4285 85.0678 17.6843C84.5911 17.9302 84.0383 18.0532 83.4095 18.0532C82.6994 18.0532 82.0503 17.8761 81.462 17.5219C80.8839 17.1677 80.4224 16.6709 80.0775 16.0314C79.7428 15.382 79.5754 14.6392 79.5754 13.8029ZM86.2089 13.8324C86.2089 13.3307 86.1075 12.9027 85.9046 12.5485C85.7018 12.1845 85.4279 11.909 85.083 11.7221C84.7382 11.5253 84.368 11.4269 83.9724 11.4269C83.5768 11.4269 83.2117 11.5204 82.8769 11.7073C82.5422 11.8942 82.2684 12.1697 82.0554 12.5337C81.8525 12.8879 81.7511 13.311 81.7511 13.8029C81.7511 14.2949 81.8525 14.7278 82.0554 15.1016C82.2684 15.4657 82.5422 15.7461 82.8769 15.9428C83.2218 16.1396 83.587 16.238 83.9724 16.238C84.368 16.238 84.7382 16.1445 85.083 15.9576C85.4279 15.7608 85.7018 15.4853 85.9046 15.1311C86.1075 14.7671 86.2089 14.3342 86.2089 13.8324Z" fill="#F9F9F9"/>
<path d="M93.6599 18.0532C92.9702 18.0532 92.3515 17.9352 91.8037 17.699C91.256 17.4531 90.8199 17.1235 90.4953 16.7102C90.1809 16.297 90.0084 15.8395 89.978 15.3378H92.1232C92.1638 15.6526 92.321 15.9133 92.5949 16.1199C92.8789 16.3265 93.2288 16.4298 93.6447 16.4298C94.0504 16.4298 94.3648 16.3511 94.588 16.1937C94.8213 16.0363 94.9379 15.8346 94.9379 15.5886C94.9379 15.323 94.7959 15.1262 94.5119 14.9983C94.238 14.8606 93.7968 14.713 93.1883 14.5556C92.5594 14.408 92.0421 14.2555 91.6364 14.0981C91.2408 13.9407 90.896 13.6996 90.6018 13.3749C90.3178 13.0503 90.1758 12.6125 90.1758 12.0615C90.1758 11.6089 90.3077 11.1957 90.5714 10.8218C90.8452 10.448 91.2307 10.1528 91.7277 9.93634C92.2348 9.71989 92.8282 9.61167 93.5078 9.61167C94.5119 9.61167 95.3132 9.85764 95.9116 10.3496C96.5101 10.8317 96.8397 11.4859 96.9006 12.3124H94.8618C94.8314 11.9877 94.6894 11.7319 94.4358 11.545C94.1924 11.3482 93.8628 11.2498 93.4469 11.2498C93.0615 11.2498 92.7623 11.3187 92.5492 11.4564C92.3464 11.5942 92.245 11.786 92.245 12.032C92.245 12.3075 92.387 12.519 92.671 12.6666C92.955 12.8043 93.3962 12.947 93.9946 13.0945C94.6032 13.2421 95.1053 13.3946 95.5008 13.552C95.8964 13.7095 96.2362 13.9554 96.5202 14.2899C96.8143 14.6146 96.9665 15.0475 96.9766 15.5886C96.9766 16.0609 96.8397 16.484 96.5658 16.8578C96.3021 17.2317 95.9167 17.5269 95.4096 17.7433C94.9126 17.9499 94.3293 18.0532 93.6599 18.0532Z" fill="#F9F9F9"/>
<path d="M101.951 18.0532C101.261 18.0532 100.642 17.9352 100.094 17.699C99.5467 17.4531 99.1105 17.1235 98.786 16.7102C98.4715 16.297 98.2991 15.8395 98.2687 15.3378H100.414C100.454 15.6526 100.612 15.9133 100.886 16.1199C101.17 16.3265 101.519 16.4298 101.935 16.4298C102.341 16.4298 102.655 16.3511 102.879 16.1937C103.112 16.0363 103.229 15.8346 103.229 15.5886C103.229 15.323 103.087 15.1262 102.803 14.9983C102.529 14.8606 102.087 14.713 101.479 14.5556C100.85 14.408 100.333 14.2555 99.927 14.0981C99.5315 13.9407 99.1866 13.6996 98.8925 13.3749C98.6085 13.0503 98.4664 12.6125 98.4664 12.0615C98.4664 11.6089 98.5983 11.1957 98.862 10.8218C99.1359 10.448 99.5213 10.1528 100.018 9.93634C100.525 9.71989 101.119 9.61167 101.798 9.61167C102.803 9.61167 103.604 9.85764 104.202 10.3496C104.801 10.8317 105.13 11.4859 105.191 12.3124H103.152C103.122 11.9877 102.98 11.7319 102.726 11.545C102.483 11.3482 102.153 11.2498 101.738 11.2498C101.352 11.2498 101.053 11.3187 100.84 11.4564C100.637 11.5942 100.536 11.786 100.536 12.032C100.536 12.3075 100.678 12.519 100.962 12.6666C101.246 12.8043 101.687 12.947 102.285 13.0945C102.894 13.2421 103.396 13.3946 103.791 13.552C104.187 13.7095 104.527 13.9554 104.811 14.2899C105.105 14.6146 105.257 15.0475 105.267 15.5886C105.267 16.0609 105.13 16.484 104.856 16.8578C104.593 17.2317 104.207 17.5269 103.7 17.7433C103.203 17.9499 102.62 18.0532 101.951 18.0532Z" fill="#F9F9F9"/>
</svg>
