<svg width="106" height="28" viewBox="0 0 106 28" fill="none" xmlns="http://www.w3.org/2000/svg">
<path d="M8.08824 2.09805C9.67788 1.4668 11.3817 1.14185 13.1023 1.14185V7.42276C12.242 7.42276 11.3901 7.5852 10.5953 7.9009C9.80045 8.21652 9.07825 8.67916 8.46993 9.26239C7.8616 9.84561 7.37907 10.538 7.04986 11.3001C6.72058 12.0621 6.55115 12.8788 6.55115 13.7037H0C0 12.0541 0.338938 10.4205 0.997347 8.89644C1.65583 7.37237 2.62091 5.98763 3.83755 4.8211C5.05427 3.65464 6.49859 2.72937 8.08824 2.09805Z" fill="#F9F9F9"/>
<path opacity="0.8" d="M0 13.7041C0 15.3537 0.338938 16.9873 0.997347 18.5113C1.65583 20.0354 2.62091 21.4202 3.83755 22.5867C5.05427 23.7531 6.49859 24.6784 8.08824 25.3097C9.67788 25.941 11.3817 26.2659 13.1023 26.2659C14.8229 26.2659 16.5267 25.941 18.1164 25.3097C19.706 24.6784 21.1503 23.7531 22.367 22.5867C23.5837 21.4202 24.5488 20.0354 25.2073 18.5113C25.8657 16.9873 26.2046 15.3537 26.2046 13.7041H19.6534C19.6534 14.5289 19.484 15.3457 19.1547 16.1077C18.8255 16.8698 18.343 17.5622 17.7347 18.1454C17.1264 18.7286 16.4042 19.1913 15.6093 19.5069C14.8145 19.8226 13.9626 19.985 13.1023 19.985C12.242 19.985 11.3901 19.8226 10.5953 19.5069C9.80044 19.1913 9.07825 18.7286 8.46992 18.1454C7.8616 17.5622 7.37906 16.8698 7.04986 16.1077C6.72058 15.3457 6.55115 14.5289 6.55115 13.7041H0Z" fill="#F9F9F9"/>
<path opacity="0.8" d="M13.1025 9.70654C10.8001 9.70654 8.93359 11.496 8.93359 13.7035H17.2714C17.2714 11.496 15.4049 9.70654 13.1025 9.70654Z" fill="#F9F9F9"/>
<path d="M13.1025 17.7007C10.8001 17.7007 8.93359 15.9112 8.93359 13.7037H17.2714C17.2714 15.9112 15.4049 17.7007 13.1025 17.7007Z" fill="#F9F9F9"/>
<path d="M39.7941 11.0782C39.7467 10.6202 39.5434 10.2644 39.1842 10.0108C38.8249 9.75724 38.3374 9.63044 37.7215 9.63044C37.303 9.63044 36.9497 9.68722 36.6615 9.80077C36.3733 9.91053 36.1522 10.0638 35.9983 10.2606C35.8483 10.4575 35.7733 10.6808 35.7733 10.9306C35.7654 11.1388 35.8108 11.3204 35.9095 11.4756C36.0121 11.6308 36.1522 11.7652 36.3299 11.8787C36.5075 11.9885 36.7128 12.085 36.9458 12.1683C37.1787 12.2478 37.4274 12.3159 37.6919 12.3727L38.7815 12.6225C39.3105 12.736 39.7961 12.8874 40.2383 13.0767C40.6804 13.2659 41.0634 13.4987 41.3871 13.775C41.7108 14.0513 41.9615 14.3768 42.1391 14.7515C42.3207 15.1262 42.4135 15.5558 42.4175 16.0403C42.4135 16.7519 42.224 17.3688 41.849 17.8912C41.4779 18.4097 40.941 18.8128 40.2383 19.1005C39.5395 19.3844 38.6966 19.5263 37.7097 19.5263C36.7306 19.5263 35.8779 19.3825 35.1515 19.0948C34.429 18.8071 33.8645 18.3813 33.4578 17.8174C33.0552 17.2496 32.844 16.5475 32.8242 15.711H35.3054C35.3331 16.1009 35.4495 16.4264 35.6548 16.6876C35.8641 16.9449 36.1424 17.1399 36.4898 17.2723C36.8411 17.401 37.2379 17.4654 37.6801 17.4654C38.1143 17.4654 38.4913 17.4048 38.8111 17.2837C39.1348 17.1626 39.3855 16.9941 39.5632 16.7784C39.7408 16.5626 39.8297 16.3147 39.8297 16.0346C39.8297 15.7735 39.7487 15.5539 39.5869 15.3761C39.4289 15.1982 39.196 15.0468 38.8881 14.9219C38.5841 14.7969 38.211 14.6834 37.7689 14.5812L36.4483 14.2633C35.4258 14.0248 34.6185 13.652 34.0263 13.1448C33.4342 12.6376 33.14 11.9544 33.144 11.0952C33.14 10.3912 33.3355 9.77617 33.7302 9.25005C34.129 8.72394 34.6758 8.31327 35.3706 8.01804C36.0654 7.72281 36.855 7.5752 37.7393 7.5752C38.6394 7.5752 39.425 7.72281 40.0961 8.01804C40.7712 8.31327 41.2963 8.72394 41.6713 9.25005C42.0464 9.77617 42.2398 10.3855 42.2516 11.0782H39.7941Z" fill="#F9F9F9"/>
<path d="M48.24 19.532C47.3044 19.532 46.499 19.3503 45.8239 18.9869C45.1528 18.6198 44.6356 18.1012 44.2724 17.4313C43.9092 16.7576 43.7276 15.9608 43.7276 15.0411C43.7276 14.144 43.9092 13.3568 44.2724 12.6792C44.6356 12.0017 45.1469 11.4737 45.8062 11.0952C46.4694 10.7167 47.2471 10.5275 48.1394 10.5275C48.7394 10.5275 49.298 10.6202 49.8152 10.8057C50.3363 10.9874 50.7903 11.2618 51.1772 11.6289C51.568 11.9961 51.872 12.4578 52.0892 13.0142C52.3063 13.5668 52.4149 14.2141 52.4149 14.9559V15.6202H44.7343V14.1213H50.0402C50.0402 13.7731 49.9613 13.4646 49.8034 13.1959C49.6455 12.9272 49.4263 12.7171 49.146 12.5657C48.8697 12.4105 48.548 12.3329 48.1808 12.3329C47.7979 12.3329 47.4584 12.4181 47.1623 12.5884C46.8701 12.7549 46.6411 12.9802 46.4753 13.264C46.3095 13.5441 46.2247 13.8564 46.2207 14.2008V15.6259C46.2207 16.0574 46.3036 16.4302 46.4694 16.7443C46.6392 17.0585 46.878 17.3007 47.1859 17.471C47.4939 17.6414 47.8591 17.7265 48.2815 17.7265C48.5618 17.7265 48.8184 17.6887 49.0513 17.613C49.2842 17.5373 49.4836 17.4237 49.6494 17.2723C49.8152 17.1209 49.9415 16.9355 50.0284 16.7159L52.3616 16.8636C52.2431 17.401 52.0003 17.8704 51.6332 18.2716C51.27 18.669 50.8002 18.9794 50.2238 19.2027C49.6514 19.4222 48.9901 19.532 48.24 19.532Z" fill="#F9F9F9"/>
<path d="M58.159 22.8136C57.3418 22.8136 56.641 22.7057 56.0567 22.4899C55.4764 22.278 55.0145 21.9884 54.671 21.6213C54.3276 21.2541 54.1045 20.8416 54.0019 20.3836L56.3351 20.0827C56.4061 20.2568 56.5186 20.4195 56.6726 20.5709C56.8266 20.7223 57.0299 20.8435 57.2825 20.9343C57.5391 21.0289 57.851 21.0762 58.2182 21.0762C58.7669 21.0762 59.219 20.9476 59.5743 20.6902C59.9335 20.4366 60.1131 20.0108 60.1131 19.4127V17.8174H60.0065C59.896 18.0596 59.7302 18.2886 59.5091 18.5043C59.288 18.7201 59.0038 18.8961 58.6564 19.0323C58.309 19.1686 57.8945 19.2367 57.4128 19.2367C56.7298 19.2367 56.1081 19.0853 55.5475 18.7825C54.9908 18.476 54.5467 18.0085 54.2151 17.3802C53.8874 16.7481 53.7236 15.9495 53.7236 14.9843C53.7236 13.9964 53.8913 13.1713 54.2269 12.5089C54.5625 11.8466 55.0086 11.3507 55.5652 11.0214C56.1258 10.6921 56.7397 10.5275 57.4069 10.5275C57.9162 10.5275 58.3425 10.6108 58.686 10.7773C59.0295 10.94 59.3058 11.1444 59.515 11.3905C59.7282 11.6327 59.8921 11.8712 60.0065 12.1058H60.1013V10.641H62.6062V19.4468C62.6062 20.1887 62.4167 20.8094 62.0377 21.309C61.6587 21.8086 61.1337 22.1834 60.4625 22.4332C59.7953 22.6868 59.0275 22.8136 58.159 22.8136ZM58.2123 17.4199C58.6189 17.4199 58.9623 17.3234 59.2426 17.1304C59.5269 16.9336 59.744 16.6535 59.894 16.2901C60.048 15.923 60.125 15.4839 60.125 14.973C60.125 14.462 60.05 14.0191 59.9 13.6444C59.7499 13.2659 59.5328 12.9726 59.2486 12.7644C58.9643 12.5562 58.6189 12.4522 58.2123 12.4522C57.7977 12.4522 57.4483 12.56 57.1641 12.7758C56.8799 12.9877 56.6647 13.283 56.5186 13.6615C56.3726 14.04 56.2995 14.4771 56.2995 14.973C56.2995 15.4764 56.3726 15.9116 56.5186 16.2788C56.6686 16.6421 56.8838 16.9241 57.1641 17.1247C57.4483 17.3215 57.7977 17.4199 58.2123 17.4199Z" fill="#F9F9F9"/>
<path d="M64.6137 19.3616V10.641H67.0179V12.1796H67.1245C67.314 11.6687 67.6298 11.2656 68.072 10.9703C68.5141 10.6751 69.0431 10.5275 69.659 10.5275C70.2828 10.5275 70.8137 10.677 71.2519 10.976C71.6902 11.2712 71.9823 11.6724 72.1284 12.1796H72.2231C72.4087 11.68 72.7442 11.2807 73.2298 10.9817C73.7193 10.6789 74.2977 10.5275 74.9649 10.5275C75.8137 10.5275 76.5026 10.7868 77.0316 11.3053C77.5645 11.8201 77.831 12.5506 77.831 13.4968V19.3616H75.3143V13.9737C75.3143 13.4892 75.18 13.1259 74.9116 12.8836C74.6431 12.6414 74.3076 12.5203 73.9049 12.5203C73.4469 12.5203 73.0897 12.6603 72.8331 12.9404C72.5765 13.2167 72.4481 13.582 72.4481 14.0362V19.3616H70.0025V13.9226C70.0025 13.4949 69.8742 13.1543 69.6175 12.9007C69.3649 12.6471 69.0313 12.5203 68.6168 12.5203C68.3365 12.5203 68.0838 12.5884 67.8588 12.7247C67.6377 12.8571 67.462 13.0445 67.3318 13.2867C67.2015 13.5252 67.1363 13.8053 67.1363 14.127V19.3616H64.6137Z" fill="#F9F9F9"/>
<path d="M83.9689 19.532C83.0333 19.532 82.2279 19.3503 81.5528 18.9869C80.8817 18.6198 80.3645 18.1012 80.0013 17.4313C79.6381 16.7576 79.4565 15.9608 79.4565 15.0411C79.4565 14.144 79.6381 13.3568 80.0013 12.6792C80.3645 12.0017 80.8758 11.4737 81.5351 11.0952C82.1983 10.7167 82.976 10.5275 83.8682 10.5275C84.4683 10.5275 85.0269 10.6202 85.5441 10.8057C86.0652 10.9874 86.5192 11.2618 86.9061 11.6289C87.2969 11.9961 87.6009 12.4578 87.8181 13.0142C88.0352 13.5668 88.1438 14.2141 88.1438 14.9559V15.6202H80.4632V14.1213H85.7691C85.7691 13.7731 85.6902 13.4646 85.5323 13.1959C85.3743 12.9272 85.1552 12.7171 84.8749 12.5657C84.5986 12.4105 84.2768 12.3329 83.9097 12.3329C83.5268 12.3329 83.1872 12.4181 82.8912 12.5884C82.599 12.7549 82.37 12.9802 82.2042 13.264C82.0384 13.5441 81.9535 13.8564 81.9496 14.2008V15.6259C81.9496 16.0574 82.0325 16.4302 82.1983 16.7443C82.3681 17.0585 82.6069 17.3007 82.9148 17.471C83.2228 17.6414 83.5879 17.7265 84.0104 17.7265C84.2907 17.7265 84.5473 17.6887 84.7802 17.613C85.0131 17.5373 85.2125 17.4237 85.3783 17.2723C85.5441 17.1209 85.6704 16.9355 85.7573 16.7159L88.0905 16.8636C87.972 17.401 87.7292 17.8704 87.3621 18.2716C86.9989 18.669 86.5291 18.9794 85.9527 19.2027C85.3803 19.4222 84.719 19.532 83.9689 19.532Z" fill="#F9F9F9"/>
<path d="M92.3127 14.32V19.3616H89.79V10.641H92.1942V12.1796H92.3008C92.5022 11.6724 92.8397 11.2712 93.3134 10.976C93.7872 10.677 94.3616 10.5275 95.0367 10.5275C95.6683 10.5275 96.219 10.66 96.6888 10.9249C97.1586 11.1899 97.5238 11.5684 97.7844 12.0604C98.0449 12.5487 98.1752 13.1316 98.1752 13.8091V19.3616H95.6525V14.2406C95.6565 13.7069 95.5144 13.2905 95.2262 12.9915C94.938 12.6887 94.5412 12.5373 94.0359 12.5373C93.6964 12.5373 93.3963 12.6073 93.1358 12.7474C92.8792 12.8874 92.6778 13.0918 92.5318 13.3605C92.3896 13.6255 92.3166 13.9453 92.3127 14.32Z" fill="#F9F9F9"/>
<path d="M105.001 10.641V12.4578H99.5239V10.641H105.001ZM100.767 8.55172H103.29V16.6819C103.29 16.9052 103.326 17.0793 103.397 17.2042C103.468 17.3253 103.566 17.4105 103.693 17.4597C103.823 17.5089 103.973 17.5335 104.143 17.5335C104.261 17.5335 104.38 17.524 104.498 17.5051C104.617 17.4824 104.707 17.4654 104.771 17.454L105.167 19.2538C105.041 19.2916 104.863 19.3351 104.634 19.3844C104.405 19.4373 104.127 19.4695 103.799 19.4809C103.191 19.5036 102.658 19.426 102.201 19.2481C101.747 19.0702 101.393 18.7939 101.141 18.4192C100.888 18.0445 100.763 17.5713 100.767 16.9998V8.55172Z" fill="#F9F9F9"/>
</svg>
