<svg width="93" height="31" viewBox="0 0 93 31" fill="none" xmlns="http://www.w3.org/2000/svg">
<path opacity="0.7" d="M8.43489 14.1803C8.95734 12.2308 10.9612 10.2269 12.9107 9.70442L25.0647 6.44727C27.0142 5.92483 28.1711 7.08168 27.6486 9.03118L24.3915 21.1852C23.8691 23.1347 21.8652 25.1386 19.9157 25.661L7.76164 28.9182C5.81215 29.4406 4.6553 28.2838 5.17774 26.3343L8.43489 14.1803Z" fill="#F9F9F9"/>
<path d="M3.5638 9.3077C4.08624 7.35821 6.09014 5.35431 8.03964 4.83186L20.1937 1.57471C22.1432 1.05227 23.3 2.20912 22.7776 4.15861L19.5204 16.3126C18.998 18.2621 16.9941 20.266 15.0446 20.7885L2.89055 24.0456C0.941056 24.5681 -0.215798 23.4112 0.306647 21.4617L3.5638 9.3077Z" fill="#F9F9F9"/>
<path d="M39.091 19.1964H43.076V21.5448H36.0488V9.05591H39.091V19.1964Z" fill="#F9F9F9"/>
<path d="M43.5664 16.5635C43.5664 15.5435 43.7562 14.648 44.1357 13.8771C44.5271 13.1062 45.0549 12.5132 45.719 12.0981C46.3832 11.683 47.1245 11.4754 47.9428 11.4754C48.6426 11.4754 49.2534 11.6177 49.7753 11.9024C50.309 12.187 50.7181 12.5606 51.0028 13.0232V11.6177H54.045V21.5448H51.0028V20.1393C50.7063 20.6019 50.2912 20.9755 49.7575 21.2601C49.2356 21.5448 48.6248 21.6871 47.925 21.6871C47.1185 21.6871 46.3832 21.4796 45.719 21.0644C45.0549 20.6375 44.5271 20.0385 44.1357 19.2676C43.7562 18.4848 43.5664 17.5834 43.5664 16.5635ZM51.0028 16.5813C51.0028 15.8222 50.7893 15.2233 50.3623 14.7844C49.9472 14.3456 49.4372 14.1262 48.8324 14.1262C48.2275 14.1262 47.7116 14.3456 47.2846 14.7844C46.8695 15.2114 46.6619 15.8044 46.6619 16.5635C46.6619 17.3225 46.8695 17.9274 47.2846 18.3781C47.7116 18.8169 48.2275 19.0363 48.8324 19.0363C49.4372 19.0363 49.9472 18.8169 50.3623 18.3781C50.7893 17.9393 51.0028 17.3403 51.0028 16.5813Z" fill="#F9F9F9"/>
<path d="M66.0306 11.6177L59.8039 26.2592H56.5305L58.8076 21.2068L54.7692 11.6177H58.1672L60.4622 17.8266L62.7393 11.6177H66.0306Z" fill="#F9F9F9"/>
<path d="M76.1326 16.4211C76.1326 16.7058 76.1148 17.0023 76.0792 17.3107H69.1943C69.2418 17.9274 69.4375 18.4018 69.7814 18.7339C70.1372 19.0541 70.5701 19.2142 71.0801 19.2142C71.8392 19.2142 72.367 18.894 72.6635 18.2536H75.9013C75.7353 18.9059 75.4328 19.493 74.994 20.0148C74.567 20.5367 74.0274 20.9458 73.3751 21.2423C72.7228 21.5389 71.9934 21.6871 71.1869 21.6871C70.2143 21.6871 69.3485 21.4796 68.5895 21.0644C67.8304 20.6493 67.2374 20.0563 66.8104 19.2854C66.3834 18.5145 66.17 17.6131 66.17 16.5813C66.17 15.5494 66.3775 14.648 66.7926 13.8771C67.2196 13.1062 67.8126 12.5132 68.5717 12.0981C69.3307 11.683 70.2025 11.4754 71.1869 11.4754C72.1475 11.4754 73.0015 11.677 73.7487 12.0803C74.4959 12.4835 75.077 13.0588 75.4921 13.806C75.9191 14.5531 76.1326 15.4249 76.1326 16.4211ZM73.0193 15.6206C73.0193 15.0987 72.8414 14.6836 72.4856 14.3752C72.1297 14.0669 71.685 13.9127 71.1513 13.9127C70.6413 13.9127 70.2084 14.0609 69.8526 14.3575C69.5086 14.654 69.2951 15.075 69.2121 15.6206H73.0193Z" fill="#F9F9F9"/>
<path d="M80.4238 13.2722C80.7797 12.7267 81.2244 12.2997 81.7581 11.9913C82.2918 11.6711 82.8849 11.511 83.5372 11.511V14.7311H82.701C81.942 14.7311 81.3727 14.8971 80.9931 15.2292C80.6136 15.5494 80.4238 16.1187 80.4238 16.9371V21.5448H77.3817V11.6177H80.4238V13.2722Z" fill="#F9F9F9"/>
<path d="M88.6739 21.6871C87.8081 21.6871 87.0372 21.5389 86.3611 21.2423C85.6851 20.9458 85.1514 20.5426 84.76 20.0326C84.3686 19.5107 84.1492 18.9296 84.1017 18.2891H87.1083C87.1439 18.6331 87.304 18.9118 87.5887 19.1253C87.8733 19.3388 88.2232 19.4455 88.6383 19.4455C89.0178 19.4455 89.3084 19.3744 89.51 19.232C89.7235 19.0778 89.8302 18.8822 89.8302 18.6449C89.8302 18.3603 89.682 18.1527 89.3855 18.0223C89.089 17.88 88.6086 17.7258 87.9445 17.5597C87.2328 17.3937 86.6398 17.2217 86.1654 17.0438C85.691 16.854 85.2818 16.5635 84.9379 16.1721C84.5939 15.7688 84.422 15.2292 84.422 14.5531C84.422 13.9839 84.5761 13.4679 84.8845 13.0054C85.2047 12.531 85.6673 12.1574 86.2722 11.8846C86.8889 11.6118 87.6183 11.4754 88.4604 11.4754C89.7057 11.4754 90.6842 11.7838 91.3958 12.4005C92.1193 13.0172 92.5344 13.8356 92.6411 14.8556H89.8302C89.7828 14.5116 89.6286 14.2389 89.3677 14.0372C89.1186 13.8356 88.7865 13.7348 88.3714 13.7348C88.0156 13.7348 87.7428 13.806 87.5531 13.9483C87.3633 14.0787 87.2684 14.2626 87.2684 14.4998C87.2684 14.7844 87.4167 14.9979 87.7132 15.1402C88.0216 15.2826 88.496 15.4249 89.1364 15.5672C89.8718 15.757 90.4707 15.9467 90.9333 16.1365C91.3958 16.3144 91.7991 16.6109 92.143 17.026C92.4988 17.4293 92.6826 17.9748 92.6945 18.6627C92.6945 19.2439 92.5285 19.7657 92.1964 20.2283C91.8761 20.679 91.4077 21.0348 90.7909 21.2957C90.1861 21.5566 89.4804 21.6871 88.6739 21.6871Z" fill="#F9F9F9"/>
</svg>
