<svg width="106" height="26" viewBox="0 0 106 26" fill="none" xmlns="http://www.w3.org/2000/svg">
<path opacity="0.8" d="M12.503 13.704C12.2378 10.4575 9.545 7.90625 6.26221 7.90625C2.80369 7.90625 0 10.738 0 14.2311C0 17.7242 2.80369 20.5559 6.26221 20.5559H15.6555V13.704H12.503Z" fill="#F9F9F9"/>
<ellipse cx="15.1325" cy="12.6497" rx="7.82777" ry="7.90605" fill="#F9F9F9"/>
<path d="M27.6035 12.7553C27.6035 11.7026 27.8032 10.7826 28.2026 9.99556C28.6117 9.19863 29.1913 8.58371 29.9414 8.15081C30.7012 7.71791 31.5925 7.50146 32.6154 7.50146C33.4142 7.50146 34.1301 7.65888 34.7633 7.97372C35.3965 8.28856 35.9079 8.73129 36.2976 9.30193C36.6872 9.87258 36.921 10.5318 36.9989 11.2795H34.8072C34.6805 10.6892 34.4126 10.2268 34.0035 9.89225C33.6041 9.5479 33.1024 9.37572 32.4985 9.37572C31.6802 9.37572 31.0324 9.68564 30.5551 10.3055C30.0778 10.9253 29.8391 11.7419 29.8391 12.7553C29.8391 13.7588 30.0778 14.5754 30.5551 15.2051C31.0324 15.825 31.6802 16.1349 32.4985 16.1349C33.1024 16.1349 33.6041 15.9676 34.0035 15.6331C34.4126 15.2887 34.6805 14.8214 34.8072 14.2311H36.9989C36.921 14.9788 36.6872 15.638 36.2976 16.2087C35.9079 16.7793 35.3965 17.222 34.7633 17.5369C34.1301 17.8517 33.4142 18.0091 32.6154 18.0091C31.5925 18.0091 30.7012 17.7927 29.9414 17.3598C29.1913 16.9269 28.6117 16.3169 28.2026 15.5298C27.8032 14.7329 27.6035 13.808 27.6035 12.7553Z" fill="#F9F9F9"/>
<path d="M37.5271 7.59001H39.5874V17.9206H37.5271V7.59001Z" fill="#F9F9F9"/>
<path d="M44.1062 18.0091C43.3172 18.0091 42.6207 17.8517 42.0167 17.5369C41.4225 17.2122 40.9598 16.7547 40.6286 16.1644C40.3071 15.5741 40.1464 14.8952 40.1464 14.1278C40.1464 13.3604 40.3071 12.6815 40.6286 12.0912C40.9598 11.5009 41.4225 11.0483 42.0167 10.7335C42.6207 10.4088 43.3172 10.2464 44.1062 10.2464C44.8953 10.2464 45.5869 10.4088 46.1811 10.7335C46.785 11.0483 47.2478 11.5009 47.5692 12.0912C47.9004 12.6815 48.066 13.3604 48.066 14.1278C48.066 14.905 47.9004 15.5888 47.5692 16.1791C47.2478 16.7596 46.785 17.2122 46.1811 17.5369C45.5869 17.8517 44.8953 18.0091 44.1062 18.0091ZM44.1062 16.312C44.6809 16.312 45.1339 16.1103 45.4651 15.7069C45.8061 15.3035 45.9765 14.7771 45.9765 14.1278C45.9765 13.4784 45.8061 12.9521 45.4651 12.5487C45.1339 12.1453 44.6809 11.9436 44.1062 11.9436C43.5412 11.9436 43.0883 12.1453 42.7473 12.5487C42.4161 12.9521 42.2505 13.4784 42.2505 14.1278C42.2505 14.7771 42.4161 15.3035 42.7473 15.7069C43.0883 16.1103 43.5412 16.312 44.1062 16.312Z" fill="#F9F9F9"/>
<path d="M55.6877 10.335V17.9206H53.8612L53.6713 17.0056C53.4082 17.3204 53.1014 17.5664 52.7507 17.7435C52.4 17.9206 51.9714 18.0091 51.4649 18.0091C50.5882 18.0091 49.8722 17.7386 49.3169 17.1974C48.7617 16.6465 48.4841 15.7315 48.4841 14.4525V10.335H50.5443V14.2016C50.5443 14.8903 50.6612 15.4117 50.895 15.7659C51.1385 16.1103 51.5087 16.2824 52.0055 16.2824C52.5218 16.2824 52.9212 16.0906 53.2037 15.7069C53.4862 15.3133 53.6274 14.7673 53.6274 14.0688V10.335H55.6877Z" fill="#F9F9F9"/>
<path d="M64.0461 7.59001V17.9206H62.2489L62.0443 16.8728C61.4696 17.6303 60.6903 18.0091 59.7064 18.0091C59.044 18.0091 58.4498 17.8517 57.9238 17.5369C57.3977 17.2122 56.9837 16.7547 56.6818 16.1644C56.3895 15.5741 56.2434 14.8903 56.2434 14.113C56.2434 13.3456 56.3895 12.6717 56.6818 12.0912C56.9837 11.5009 57.3977 11.0483 57.9238 10.7335C58.4595 10.4088 59.0586 10.2464 59.721 10.2464C60.6951 10.2464 61.4501 10.5908 61.9858 11.2795V7.59001H64.0461ZM60.1886 16.312C60.7438 16.312 61.1871 16.1152 61.5183 15.7216C61.8495 15.3183 62.0151 14.7919 62.0151 14.1425C62.0151 13.4834 61.8495 12.9521 61.5183 12.5487C61.1871 12.1453 60.7438 11.9436 60.1886 11.9436C59.6333 11.9436 59.1852 12.1453 58.8443 12.5487C58.5131 12.9521 58.3475 13.4784 58.3475 14.1278C58.3475 14.7771 58.5131 15.3035 58.8443 15.7069C59.1852 16.1103 59.6333 16.312 60.1886 16.312Z" fill="#F9F9F9"/>
<path d="M64.3136 7.59001L66.5784 7.57525L68.4633 15.1313L70.4652 7.59001H72.4378L74.3811 15.1313L76.3099 7.59001H78.5309L75.6962 17.9206H73.1684L71.4003 11.0581L69.6761 17.9206H67.1483L64.3136 7.59001Z" fill="#F9F9F9"/>
<path d="M85.4058 16.1644V17.9206H84.3537C83.4088 17.9206 82.9461 17.5074 82.9656 16.6809C82.6928 17.1138 82.3568 17.4434 81.9574 17.6697C81.558 17.896 81.0758 18.0091 80.5108 18.0091C79.6731 18.0091 78.996 17.8173 78.4798 17.4336C77.9732 17.04 77.7199 16.4891 77.7199 15.7807C77.7199 14.9739 78.0122 14.3541 78.5966 13.9212C79.1909 13.4784 80.0481 13.2571 81.1683 13.2571H82.6587V12.8881C82.6587 12.5438 82.5321 12.2732 82.2788 12.0764C82.0256 11.8698 81.6846 11.7665 81.256 11.7665C80.8761 11.7665 80.5644 11.8501 80.3208 12.0174C80.0773 12.1847 79.9312 12.4109 79.8825 12.6963H77.8953C77.9635 11.919 78.3044 11.3189 78.9181 10.8958C79.5318 10.4629 80.3452 10.2464 81.3583 10.2464C82.4201 10.2464 83.2383 10.4826 83.8131 10.9548C84.3975 11.4271 84.6898 12.1109 84.6898 13.0062V15.6774C84.6898 15.8643 84.7287 15.9922 84.8067 16.0611C84.8846 16.1299 85.0064 16.1644 85.172 16.1644H85.4058ZM82.6587 14.6443H81.1537C80.7251 14.6443 80.389 14.7329 80.1455 14.91C79.9117 15.0772 79.7948 15.3183 79.7948 15.6331C79.7948 15.8987 79.8922 16.1103 80.0871 16.2677C80.2916 16.4251 80.5644 16.5038 80.9053 16.5038C81.4411 16.5038 81.8648 16.3513 82.1765 16.0463C82.4883 15.7315 82.649 15.3133 82.6587 14.7919V14.6443Z" fill="#F9F9F9"/>
<path d="M86.1005 12.0912H84.8585V10.335H86.1005V8.20985H88.1608V10.335H89.8704V12.0912H88.1608V15.4117C88.1608 15.6774 88.2144 15.8692 88.3215 15.9873C88.4384 16.1054 88.6284 16.1644 88.8914 16.1644H89.958V17.9206H88.2485C86.8165 17.9206 86.1005 17.1974 86.1005 15.7512V12.0912Z" fill="#F9F9F9"/>
<path d="M97.3463 15.0428C97.2099 15.9676 96.8202 16.6957 96.1773 17.227C95.5441 17.7484 94.721 18.0091 93.7079 18.0091C92.9286 18.0091 92.2467 17.8517 91.6623 17.5369C91.0778 17.2122 90.6248 16.7547 90.3034 16.1644C89.9916 15.5741 89.8358 14.8952 89.8358 14.1278C89.8358 13.3505 89.9916 12.6717 90.3034 12.0912C90.6248 11.5009 91.0778 11.0483 91.6623 10.7335C92.2565 10.4088 92.9432 10.2464 93.7225 10.2464C94.7259 10.2464 95.5441 10.5072 96.1773 11.0286C96.8105 11.5402 97.2001 12.2535 97.3463 13.1685H95.2129C95.1253 12.7947 94.9499 12.4995 94.6869 12.283C94.4239 12.0568 94.0976 11.9436 93.7079 11.9436C93.1721 11.9436 92.7435 12.1453 92.4221 12.5487C92.1006 12.9521 91.9399 13.4784 91.9399 14.1278C91.9399 14.7771 92.1006 15.3035 92.4221 15.7069C92.7435 16.1103 93.1721 16.312 93.7079 16.312C94.1073 16.312 94.4385 16.1988 94.7015 15.9725C94.9743 15.7462 95.1496 15.4363 95.2275 15.0428H97.3463Z" fill="#F9F9F9"/>
<path d="M102.158 10.2464C103.045 10.2464 103.77 10.5219 104.335 11.0729C104.91 11.6239 105.197 12.5339 105.197 13.8031V17.9206H103.137V13.8917C103.137 13.262 103.01 12.7848 102.757 12.4601C102.504 12.1256 102.124 11.9584 101.617 11.9584C101.091 11.9584 100.677 12.1404 100.375 12.5044C100.083 12.8684 99.9371 13.3751 99.9371 14.0245V17.9206H97.8768V7.59001H99.9371V11.2647C100.492 10.5859 101.233 10.2464 102.158 10.2464Z" fill="#F9F9F9"/>
</svg>
