<svg width="2014" height="543" viewBox="0 0 2014 543" fill="none" xmlns="http://www.w3.org/2000/svg">
<g opacity="0.44" filter="url(#filter0_g_283_35)">
<path d="M47 375.024V56.1118H162.72C188.233 56.1118 209.19 60.3639 225.591 68.8683C242.296 77.3726 254.597 88.9142 262.494 103.493C270.694 118.072 274.795 134.625 274.795 153.152C274.795 170.465 270.846 186.562 262.949 201.445C255.053 216.024 242.752 227.717 226.047 236.525C209.645 245.333 188.536 249.737 162.72 249.737H101.671V375.024H47ZM101.671 205.09H159.531C180.791 205.09 195.978 200.534 205.09 191.422C214.505 182.006 219.213 169.25 219.213 153.152C219.213 136.751 214.505 123.995 205.09 114.883C195.978 105.467 180.791 100.76 159.531 100.76H101.671V205.09Z" fill="url(#paint0_linear_283_35)"/>
<path d="M310.27 375.024V149.052H364.941V183.677C370.712 172.439 378.153 163.631 387.265 157.253C396.377 150.571 406.855 147.23 418.7 147.23H449.225V195.978H413.233C402.603 195.978 393.643 198.863 386.354 204.634C379.368 210.101 374.053 218.757 370.408 230.603C366.763 242.144 364.941 256.723 364.941 274.339V375.024H310.27Z" fill="url(#paint1_linear_283_35)"/>
<path d="M571.803 380.492C549.328 380.492 528.978 375.632 510.754 365.913C492.835 355.89 478.559 341.918 467.929 323.998C457.299 306.079 451.983 285.425 451.983 262.038C451.983 238.348 457.299 217.694 467.929 200.078C478.559 182.158 492.986 168.339 511.21 158.619C529.434 148.596 549.631 143.585 571.803 143.585C594.583 143.585 614.933 148.596 632.852 158.619C650.772 168.339 665.047 182.158 675.678 200.078C686.308 217.694 691.623 238.348 691.623 262.038C691.623 285.425 686.308 306.079 675.678 323.998C665.047 341.918 650.62 355.89 632.397 365.913C614.477 375.632 594.279 380.492 571.803 380.492ZM571.803 333.11C583.345 333.11 593.824 330.529 603.239 325.365C612.958 319.898 620.703 312.001 626.474 301.675C632.245 291.044 635.13 277.832 635.13 262.038C635.13 246.244 632.245 233.184 626.474 222.858C620.703 212.227 612.958 204.33 603.239 199.167C593.824 193.7 583.497 190.966 572.259 190.966C560.717 190.966 550.087 193.7 540.368 199.167C530.649 204.33 522.904 212.227 517.133 222.858C511.362 233.184 508.477 246.244 508.477 262.038C508.477 277.832 511.362 291.044 517.133 301.675C522.904 312.001 530.497 319.898 539.912 325.365C549.631 330.529 560.262 333.11 571.803 333.11Z" fill="url(#paint2_linear_283_35)"/>
<path d="M825.19 380.492C803.929 380.492 784.794 375.328 767.785 365.001C751.08 354.675 737.868 340.551 728.149 322.632C718.733 304.408 714.026 284.058 714.026 261.583C714.026 238.803 718.733 218.605 728.149 200.989C737.868 183.069 751.08 169.098 767.785 159.075C784.794 148.748 804.08 143.585 825.645 143.585C842.957 143.585 858.144 146.926 871.204 153.608C884.264 160.29 894.591 169.554 902.184 181.399V47H956.855V375.024H902.184V341.766C895.198 351.789 885.479 360.749 873.026 368.646C860.574 376.543 844.628 380.492 825.19 380.492ZM836.124 332.655C849.184 332.655 860.725 329.617 870.748 323.543C880.771 317.468 888.668 309.116 894.439 298.485C900.21 287.855 903.095 275.706 903.095 262.038C903.095 248.067 900.21 235.766 894.439 225.135C888.668 214.505 880.771 206.304 870.748 200.534C860.725 194.459 849.184 191.422 836.124 191.422C823.367 191.422 811.977 194.459 801.954 200.534C791.931 206.304 784.035 214.505 778.264 225.135C772.493 235.766 769.608 247.915 769.608 261.583C769.608 275.554 772.493 287.855 778.264 298.485C784.035 309.116 791.931 317.468 801.954 323.543C811.977 329.617 823.367 332.655 836.124 332.655Z" fill="url(#paint3_linear_283_35)"/>
<path d="M1077.39 380.492C1051.87 380.492 1031.52 371.835 1016.34 354.523C1001.46 336.907 994.014 311.242 994.014 277.528V149.052H1048.23V272.061C1048.23 292.411 1052.18 307.901 1060.07 318.531C1067.97 328.858 1079.36 334.021 1094.24 334.021C1110.95 334.021 1124.01 328.099 1133.42 316.253C1143.14 304.408 1148 287.551 1148 265.683V149.052H1202.67V375.024H1148V340.855C1141.32 353.308 1132.06 363.027 1120.21 370.013C1108.37 376.999 1094.09 380.492 1077.39 380.492Z" fill="url(#paint4_linear_283_35)"/>
<path d="M1350.32 380.492C1327.54 380.492 1307.35 375.48 1289.73 365.457C1272.11 355.434 1258.29 341.615 1248.27 323.998C1238.25 306.079 1233.24 285.425 1233.24 262.038C1233.24 238.651 1238.25 218.15 1248.27 200.534C1258.29 182.614 1272.11 168.642 1289.73 158.619C1307.35 148.596 1327.54 143.585 1350.32 143.585C1378.57 143.585 1402.41 151.026 1421.85 165.909C1441.29 180.791 1453.74 201.141 1459.21 226.958H1402.26C1399.22 215.416 1393 206.456 1383.58 200.078C1374.17 193.7 1362.93 190.511 1349.87 190.511C1338.93 190.511 1328.76 193.396 1319.34 199.167C1310.23 204.634 1302.94 212.683 1297.48 223.313C1292.01 233.64 1289.27 246.548 1289.27 262.038C1289.27 277.225 1292.01 290.285 1297.48 301.219C1302.94 311.849 1310.23 320.05 1319.34 325.821C1328.76 331.288 1338.93 334.021 1349.87 334.021C1362.93 334.021 1374.17 330.832 1383.58 324.454C1393 318.076 1399.22 308.964 1402.26 297.119H1459.21C1454.05 322.024 1441.59 342.222 1421.85 357.712C1402.41 372.898 1378.57 380.492 1350.32 380.492ZM1294.29 495.3V463.409H1343.49C1352.3 463.409 1358.98 462.042 1363.54 459.309C1368.4 456.879 1370.83 452.475 1370.83 446.096C1370.83 439.718 1368.4 435.314 1363.54 432.884C1358.98 430.454 1352.3 429.24 1343.49 429.24H1313.42C1310.08 429.24 1308.41 427.721 1308.41 424.684C1308.41 424.076 1308.56 423.013 1308.87 421.495L1331.64 372.746H1369.46L1347.59 404.182C1349.41 403.878 1351.24 403.575 1353.06 403.271C1355.18 403.271 1357.16 403.271 1358.98 403.271C1372.95 403.271 1384.95 406.916 1394.97 414.205C1405.3 421.495 1410.46 432.429 1410.46 447.008C1410.46 457.638 1407.73 466.446 1402.26 473.432C1397.1 480.721 1389.96 486.188 1380.85 489.833C1372.04 493.478 1362.32 495.3 1351.69 495.3H1294.29Z" fill="url(#paint5_linear_283_35)"/>
<path d="M1561.81 380.492C1544.5 380.492 1529.77 377.454 1517.62 371.38C1505.47 365.001 1496.21 356.649 1489.83 346.322C1483.45 335.996 1480.26 324.758 1480.26 312.609C1480.26 288.918 1488.76 270.543 1505.77 257.482C1523.08 244.422 1545.71 237.892 1573.66 237.892C1586.41 237.892 1597.65 238.955 1607.37 241.081C1617.39 242.903 1625.44 244.726 1631.52 246.548V236.07C1631.52 219.365 1626.81 207.064 1617.39 199.167C1608.28 191.27 1596.28 187.322 1581.4 187.322C1570.47 187.322 1560.75 189.6 1552.24 194.155C1543.74 198.408 1538.27 206.304 1535.84 217.846H1483.9C1485.73 201.445 1491.19 187.777 1500.31 176.843C1509.42 165.909 1520.96 157.708 1534.93 152.241C1549.21 146.47 1564.7 143.585 1581.4 143.585C1614.51 143.585 1640.17 151.786 1658.39 168.187C1676.92 184.284 1686.19 206.912 1686.19 236.07V291.196C1686.19 302.738 1686.79 311.242 1688.01 316.709C1689.53 321.872 1691.8 325.213 1694.84 326.732C1698.18 327.947 1702.44 328.554 1707.6 328.554H1709.88V375.024H1697.58C1682.09 375.024 1669.03 372.898 1658.39 368.646C1648.07 364.09 1640.78 355.282 1636.53 342.222C1628.93 353.156 1618.91 362.268 1606.46 369.557C1594.01 376.847 1579.12 380.492 1561.81 380.492ZM1573.66 338.122C1584.29 338.122 1593.4 335.692 1600.99 330.832C1608.58 325.669 1614.66 318.987 1619.21 310.786C1624.07 302.282 1627.26 293.018 1628.78 282.995C1622.4 281.173 1614.81 279.351 1606 277.528C1597.19 275.706 1588.23 274.795 1579.12 274.795C1565.45 274.795 1554.67 277.832 1546.78 283.907C1539.18 289.981 1535.39 298.182 1535.39 308.508C1535.39 317.013 1538.73 324.15 1545.41 329.921C1552.39 335.388 1561.81 338.122 1573.66 338.122ZM1611.92 120.805C1603.42 120.805 1595.98 119.135 1589.6 115.794C1583.53 112.149 1577.91 108.656 1572.74 105.315C1567.88 101.671 1562.72 99.8484 1557.25 99.8484C1552.39 99.8484 1548.29 101.519 1544.95 104.86C1541.92 107.897 1539.79 112.909 1538.57 119.894H1507.59C1510.33 99.8484 1516.1 85.4214 1524.91 76.6133C1534.02 67.5015 1544.65 62.9456 1556.8 62.9456C1566.21 62.9456 1573.96 64.768 1580.03 68.4127C1586.41 71.7537 1592.18 75.0947 1597.35 78.4357C1602.51 81.7767 1607.82 83.4472 1613.29 83.4472C1618.15 83.4472 1622.25 81.7767 1625.59 78.4357C1628.93 75.0947 1631.06 70.0832 1631.97 63.4012H1663.41C1660.98 83.1434 1655.05 97.7223 1645.64 107.138C1636.22 116.25 1624.99 120.805 1611.92 120.805Z" fill="url(#paint6_linear_283_35)"/>
<path d="M1846.92 380.492C1824.44 380.492 1804.09 375.632 1785.87 365.913C1767.95 355.89 1753.68 341.918 1743.05 323.998C1732.42 306.079 1727.1 285.425 1727.1 262.038C1727.1 238.348 1732.42 217.694 1743.05 200.078C1753.68 182.158 1768.1 168.339 1786.33 158.619C1804.55 148.596 1824.75 143.585 1846.92 143.585C1869.7 143.585 1890.05 148.596 1907.97 158.619C1925.89 168.339 1940.16 182.158 1950.79 200.078C1961.42 217.694 1966.74 238.348 1966.74 262.038C1966.74 285.425 1961.42 306.079 1950.79 323.998C1940.16 341.918 1925.74 355.89 1907.51 365.913C1889.59 375.632 1869.4 380.492 1846.92 380.492ZM1846.92 333.11C1858.46 333.11 1868.94 330.529 1878.36 325.365C1888.07 319.898 1895.82 312.001 1901.59 301.675C1907.36 291.044 1910.25 277.832 1910.25 262.038C1910.25 246.244 1907.36 233.184 1901.59 222.858C1895.82 212.227 1888.07 204.33 1878.36 199.167C1868.94 193.7 1858.61 190.966 1847.38 190.966C1835.83 190.966 1825.2 193.7 1815.48 199.167C1805.77 204.33 1798.02 212.227 1792.25 222.858C1786.48 233.184 1783.59 246.244 1783.59 262.038C1783.59 277.832 1786.48 291.044 1792.25 301.675C1798.02 312.001 1805.61 319.898 1815.03 325.365C1824.75 330.529 1835.38 333.11 1846.92 333.11Z" fill="url(#paint7_linear_283_35)"/>
</g>
<defs>
<filter id="filter0_g_283_35" x="0" y="0" width="2013.74" height="542.3" filterUnits="userSpaceOnUse" color-interpolation-filters="sRGB">
<feFlood flood-opacity="0" result="BackgroundImageFix"/>
<feBlend mode="normal" in="SourceGraphic" in2="BackgroundImageFix" result="shape"/>
<feTurbulence type="fractalNoise" baseFrequency="0.99900001287460327 0.99900001287460327" numOctaves="3" seed="5749" />
<feDisplacementMap in="shape" scale="94" xChannelSelector="R" yChannelSelector="G" result="displacedImage" width="100%" height="100%" />
<feMerge result="effect1_texture_283_35">
<feMergeNode in="displacedImage"/>
</feMerge>
</filter>
<linearGradient id="paint0_linear_283_35" x1="919.5" y1="397" x2="919.5" y2="-128.5" gradientUnits="userSpaceOnUse">
<stop/>
<stop offset="1" stop-color="#E95004"/>
</linearGradient>
<linearGradient id="paint1_linear_283_35" x1="919.5" y1="397" x2="919.5" y2="-128.5" gradientUnits="userSpaceOnUse">
<stop/>
<stop offset="1" stop-color="#E95004"/>
</linearGradient>
<linearGradient id="paint2_linear_283_35" x1="919.5" y1="397" x2="919.5" y2="-128.5" gradientUnits="userSpaceOnUse">
<stop/>
<stop offset="1" stop-color="#E95004"/>
</linearGradient>
<linearGradient id="paint3_linear_283_35" x1="919.5" y1="397" x2="919.5" y2="-128.5" gradientUnits="userSpaceOnUse">
<stop/>
<stop offset="1" stop-color="#E95004"/>
</linearGradient>
<linearGradient id="paint4_linear_283_35" x1="919.5" y1="397" x2="919.5" y2="-128.5" gradientUnits="userSpaceOnUse">
<stop/>
<stop offset="1" stop-color="#E95004"/>
</linearGradient>
<linearGradient id="paint5_linear_283_35" x1="919.5" y1="397" x2="919.5" y2="-128.5" gradientUnits="userSpaceOnUse">
<stop/>
<stop offset="1" stop-color="#E95004"/>
</linearGradient>
<linearGradient id="paint6_linear_283_35" x1="919.5" y1="397" x2="919.5" y2="-128.5" gradientUnits="userSpaceOnUse">
<stop/>
<stop offset="1" stop-color="#E95004"/>
</linearGradient>
<linearGradient id="paint7_linear_283_35" x1="919.5" y1="397" x2="919.5" y2="-128.5" gradientUnits="userSpaceOnUse">
<stop/>
<stop offset="1" stop-color="#E95004"/>
</linearGradient>
</defs>
</svg>
