<svg width="1047.696" height="1047.696" viewBox="0 0 1047.696 1047.696" fill="none" xmlns="http://www.w3.org/2000/svg">
  <g fill="#E95004">
    <rect x="87.308" y="174.616" width="86.8" height="86.8" fill-opacity="0.12" />
    <rect x="349.232" y="0" width="86.8" height="86.8" fill-opacity="0.08" />
    <rect x="610.156" y="436.54" width="86.8" height="86.8" fill-opacity="0.15" />
    <rect x="872.08" y="87.308" width="86.8" height="86.8" fill-opacity="0.06" />
    <rect x="174.616" y="698.464" width="86.8" height="86.8" fill-opacity="0.18" />
    <rect x="785.772" y="785.772" width="86.8" height="86.8" fill-opacity="0.07" />
    <rect x="0" y="523.848" width="86.8" height="86.8" fill-opacity="0.1" />
    <rect x="436.54" y="872.08" width="86.8" height="86.8" fill-opacity="0.09" />
    <rect x="960.388" y="349.232" width="86.8" height="86.8" fill-opacity="0.13" />
    <rect x="261.924" y="261.924" width="86.8" height="86.8" fill-opacity="0.05" />
    <rect x="523.848" y="610.156" width="86.8" height="86.8" fill-opacity="0.11" />
    <rect x="698.464" y="174.616" width="86.8" height="86.8" fill-opacity="0.06" />
    <rect x="349.232" y="960.388" width="86.8" height="86.8" fill-opacity="0.14" />
    <rect x="872.08" y="698.464" width="86.8" height="86.8" fill-opacity="0.08" />
  </g>
  <g stroke="#888888" stroke-width="1.3643" stroke-opacity="0.07">
    <line x1="0" y1="0" x2="1047.696" y2="0" />
    <line x1="0" y1="87.308" x2="1047.696" y2="87.308" />
    <line x1="0" y1="174.616" x2="1047.696" y2="174.616" />
    <line x1="0" y1="261.924" x2="1047.696" y2="261.924" />
    <line x1="0" y1="349.232" x2="1047.696" y2="349.232" />
    <line x1="0" y1="436.54" x2="1047.696" y2="436.54" />
    <line x1="0" y1="523.848" x2="1047.696" y2="523.848" />
    <line x1="0" y1="611.156" x2="1047.696" y2="611.156" />
    <line x1="0" y1="698.464" x2="1047.696" y2="698.464" />
    <line x1="0" y1="785.772" x2="1047.696" y2="785.772" />
    <line x1="0" y1="873.08" x2="1047.696" y2="873.08" />
    <line x1="0" y1="960.388" x2="1047.696" y2="960.388" />
    <line x1="0" y1="0" x2="0" y2="1047.696" />
    <line x1="87.308" y1="0" x2="87.308" y2="1047.696" />
    <line x1="174.616" y1="0" x2="174.616" y2="1047.696" />
    <line x1="261.924" y1="0" x2="261.924" y2="1047.696" />
    <line x1="349.232" y1="0" x2="349.232" y2="1047.696" />
    <line x1="436.54" y1="0" x2="436.54" y2="1047.696" />
    <line x1="523.848" y1="0" x2="523.848" y2="1047.696" />
    <line x1="611.156" y1="0" x2="611.156" y2="1047.696" />
    <line x1="698.464" y1="0" x2="698.464" y2="1047.696" />
    <line x1="785.772" y1="0" x2="785.772" y2="1047.696" />
    <line x1="873.08" y1="0" x2="873.08" y2="1047.696" />
    <line x1="960.388" y1="0" x2="960.388" y2="1047.696" />
  </g>
</svg>
