<svg width="83" height="34" viewBox="0 0 83 34" fill="none" xmlns="http://www.w3.org/2000/svg">
<path d="M15.3191 18.0341L15.3227 9.81142L5.84177 19.3667L0.014858 25.2643L0 15.2131L1.43201 13.7191L10.3376 4.71051L14.9477 0.00768519L21.8075 0L21.8106 21.1087L13.1058 29.9113L9.31496 33.7472L9.30625 18.0402L15.3191 18.0341Z" fill="#F9F9F9"/>
<path d="M71.4532 30.8365L67.252 30.8252L67.2535 10.1413L71.3323 10.1136L71.5423 11.6537C74.0077 8.83326 78.2618 9.09199 80.8035 11.9376C83.2428 14.6679 83.6798 18.6934 81.9665 21.9283C80.6416 24.2538 78.3033 25.7222 75.6426 25.5639C73.9616 25.464 72.5573 24.677 71.4742 23.4085L71.4527 30.837L71.4532 30.8365ZM77.1469 21.1029C78.2459 20.2442 78.6891 19.2042 78.7541 17.9228C78.8443 16.1327 77.8867 14.4173 76.2021 13.7933C74.952 13.3301 73.6266 13.5043 72.6239 14.2974C71.6755 15.048 71.3231 16.2392 71.3277 17.5191C71.3333 19.0038 71.6658 20.526 73.0312 21.3396C74.2486 22.0651 76.031 21.9749 77.1469 21.1019V21.1029Z" fill="#F9F9F9"/>
<path d="M38.0578 25.2044L38.0266 16.2086C38.024 15.4089 37.4743 14.501 36.8682 14.0967C35.4208 13.132 33.4585 13.4983 32.4497 14.894C32.1582 15.2967 32.0275 15.9171 31.9092 16.4166L31.8938 25.1993L27.5117 25.1962L27.5127 3.52295L31.9082 3.5291L31.8979 11.6974C32.8355 10.6302 33.9734 10.0272 35.2835 9.78484C38.8371 9.12648 42.0198 11.4781 42.4656 15.1045L42.4927 25.1972L38.0578 25.2044Z" fill="#F9F9F9"/>
<path d="M65.2808 16.4116L65.2593 18.7468L65.2542 20.1169L65.2342 23.5434L65.3044 25.101L61.1221 25.1609L61.0166 23.3938C59.7301 24.814 58.0772 25.6195 56.2502 25.5462C54.4596 25.4745 52.7422 24.6163 51.7508 23.026C51.2195 22.1734 50.7041 21.1487 50.701 20.1L50.6738 10.1169L55.0969 10.1128L55.141 19.0496C55.1456 19.9872 55.7271 20.8295 56.3137 21.2707C57.1197 21.8768 58.0178 21.969 59.0194 21.6913C60.0713 21.3998 60.8941 20.2998 60.9008 19.0932L60.9505 10.1138L65.3244 10.1164L65.2147 10.6743L65.2813 16.4116H65.2808Z" fill="#F9F9F9"/>
<path d="M48.8565 10.1079H44.3652V25.2073H48.8565V10.1079Z" fill="#F9F9F9"/>
<path d="M47.4296 3.59606C48.2842 3.78255 48.7894 4.45833 49.0384 5.20841C49.3591 6.17418 49.0758 7.21885 48.3554 7.86492C47.6018 8.54122 46.4792 8.7313 45.5442 8.22664C44.6957 7.7686 44.1173 6.80949 44.2336 5.73766C44.3156 4.98195 44.7086 4.30668 45.1866 3.96136C45.8465 3.48436 46.6099 3.41673 47.4296 3.59554V3.59606Z" fill="#F9F9F9"/>
</svg>
