<svg width="102" height="45" viewBox="0 0 102 45" fill="none" xmlns="http://www.w3.org/2000/svg">
<g opacity="0.55">
<rect width="102" height="45" rx="6" transform="matrix(-1 0 0 1 102 0)" fill="#E95004"/>
<rect x="-0.685185" y="0.685185" width="100.63" height="43.6296" rx="5.31481" transform="matrix(-1 0 0 1 100.63 0)" stroke="white" stroke-opacity="0.22" stroke-width="1.37037"/>
</g>
<g opacity="0.55">
<rect width="91.3256" height="45" rx="6" transform="matrix(-1 0 0 1 102 0)" fill="#E95004"/>
<rect x="-0.685185" y="0.685185" width="89.9552" height="43.6296" rx="5.31481" transform="matrix(-1 0 0 1 100.63 0)" stroke="white" stroke-opacity="0.22" stroke-width="1.37037"/>
</g>
<rect width="78.2791" height="45" rx="6" transform="matrix(-1 0 0 1 102 0)" fill="#E95004"/>
<rect x="-0.685185" y="0.685185" width="76.9087" height="43.6296" rx="5.31481" transform="matrix(-1 0 0 1 100.63 0)" stroke="white" stroke-opacity="0.22" stroke-width="1.37037"/>
</svg>
